# Wavefront Obj file
# 
# verts: 38 uv-s: 49
mtllib panel.mtl

g Panel

v 19.478701 30.111401 -56.363701
v 12.738500 31.672600 -64.242302
v 13.103100 28.957199 -59.038898
v 11.640500 26.984100 -56.953499
v 16.697901 25.833500 -53.213799
v 9.538500 32.161400 -64.253098
v 4.978600 32.378201 -64.263901
v 5.016500 30.877800 -62.010399
v 5.028200 29.511400 -59.917900
v 5.038100 28.927200 -59.031898
v 9.750600 28.942200 -59.035400
v -10.595200 29.979601 -56.605900
v -7.727400 26.326300 -54.061001
v -1.831200 27.081400 -57.404499
v -3.026800 28.897200 -59.024899
v -2.781300 31.668200 -64.285599
v 10.152100 11.700800 -54.506802
v 13.255600 11.321100 -52.792198
v 4.904600 27.032700 -57.179001
v 4.775900 11.806400 -54.583302
v 7.464000 11.753600 -54.544998
v 8.272600 27.008400 -57.066299
v -4.536201 11.660900 -53.136501
v -0.600300 11.911900 -54.659901
v 1.536700 27.057100 -57.291698
v 0.310000 28.912201 -59.028400
v 0.326700 29.503201 -59.982800
v 0.346500 30.882900 -62.164299
v 0.403000 32.159199 -64.274696
v 3.014300 30.880400 -62.089699
v 3.721700 30.879400 -62.060600
v 2.087800 11.859100 -54.621601
v 3.014400 29.507200 -59.951199
v 3.721800 29.508900 -59.937901
v 3.721800 29.044800 -59.937901
v 3.014400 29.043200 -59.951199
v 3.014300 30.416401 -62.089699
v 3.721700 30.415400 -62.060600
# 38 positions

vt 0.998000 0.733700
vt 0.769400 0.971800
vt 0.785000 0.779600
vt 0.738000 0.684600
vt 0.908100 0.564700
vt 0.663400 0.979800
vt 0.512400 0.981700
vt 0.515200 0.892100
vt 0.517100 0.809500
vt 0.518000 0.774400
vt 0.674000 0.777400
vt 0.002000 0.720900
vt 0.098700 0.583300
vt 0.291700 0.691100
vt 0.250900 0.769100
vt 0.255500 0.964200
vt 0.647300 0.542900
vt 0.600200 0.024100
vt 0.706100 0.002000
vt 0.820900 0.483700
vt 0.421500 0.544500
vt 0.420100 0.026900
vt 0.510200 0.025500
vt 0.534400 0.543700
vt 0.002000 0.500100
vt 0.109900 0.011600
vt 0.240000 0.029800
vt 0.195600 0.546100
vt 0.403300 0.689400
vt 0.514900 0.687800
vt 0.361400 0.771300
vt 0.361300 0.808400
vt 0.360500 0.893800
vt 0.360900 0.975200
vt 0.448900 0.893200
vt 0.472300 0.892800
vt 0.308500 0.545300
vt 0.330000 0.028400
vt 0.626400 0.686200
vt 0.450300 0.809200
vt 0.473800 0.809200
vt 0.847400 0.013500
vt 0.879700 0.015300
vt 0.879700 0.003700
vt 0.847400 0.002000
vt 0.871900 0.130800
vt 0.839500 0.129700
vt 0.839500 0.118200
vt 0.871900 0.119200
# 49 texture coordinates

vn -0.347813 0.771195 0.533183
vn -0.190425 0.864786 0.464632
vn 0.225689 0.803509 0.550853
vn -0.292596 0.733641 0.613318
vn -0.323491 0.688344 0.649259
vn 0.049315 0.845477 0.531730
vn -0.001511 0.832367 0.554223
vn -0.029550 0.834228 0.550628
vn 0.024813 0.836393 0.547568
vn -0.001859 0.741489 0.670963
vn -0.002518 0.812893 0.582408
vn 0.287729 0.784646 0.549130
vn 0.288518 0.689363 0.664482
vn 0.178079 0.717858 0.673029
vn 0.197602 0.828050 0.524678
vn 0.120268 0.869128 0.479741
vn -0.387716 0.182408 0.903551
vn -0.272851 0.177930 0.945459
vn -0.466288 0.135996 0.874117
vn -0.563775 0.157281 0.810815
vn -0.031752 0.168226 0.985237
vn -0.010746 0.168129 0.985707
vn -0.010823 0.163616 0.986465
vn -0.031816 0.164626 0.985843
vn 0.471801 0.157354 0.867550
vn 0.350192 0.134637 0.926951
vn 0.209331 0.190516 0.959106
vn 0.309410 0.193555 0.931022
vn -0.019762 0.676298 0.736363
vn -0.018837 0.699768 0.714122
vn -0.002882 0.750937 0.660367
vn -0.081292 0.844313 0.529647
vn -0.023539 0.850296 0.525779
vn -0.059216 0.847120 0.528092
vn -0.014364 0.840354 0.541848
vn -0.019741 0.847594 0.530278
vn -0.031720 0.171834 0.984615
vn -0.010645 0.172653 0.984925
vn -0.018026 0.720088 0.693648
vn -0.007593 0.842118 0.539240
vn -0.010110 0.845626 0.533681
vn 0.018795 -0.000000 -0.999823
vn -0.041100 -0.000000 0.999155
vn 1.000000 -0.000000 -0.000047
vn -1.000000 -0.000000 0.000047
vn -0.021119 0.839908 0.542318
vn -0.021030 0.841269 0.540208
vn -0.012060 0.841394 0.540287
vn -0.012097 0.840034 0.542399
# 49 normals

usemtl 07___Default
s 1
f 1/1/1 2/2/2 3/3/3 4/4/4
f 1/1/1 4/4/4 5/5/5
f 6/6/6 7/7/7 8/8/8 9/9/9
f 6/6/6 9/9/9 10/10/10 11/11/11
f 12/12/12 13/13/13 14/14/14 15/15/15
f 16/16/16 12/12/12 15/15/15
f 25/29/29 19/30/30 10/10/10 26/31/31
f 16/16/16 15/15/15 26/31/31 27/32/32
f 16/16/16 27/32/32 28/33/33 29/34/34
f 29/34/34 28/33/33 30/35/35 31/36/36
f 29/34/34 31/36/36 8/8/8 7/7/7
f 11/11/11 3/3/3 2/2/2 6/6/6
f 4/4/4 3/3/3 11/11/11 22/39/39
f 22/39/39 11/11/11 10/10/10 19/30/30
f 26/31/31 15/15/15 14/14/14 25/29/29
f 27/32/32 33/40/40 30/35/35 28/33/33
f 26/31/31 10/10/10 9/9/9 34/41/41
f 26/31/31 34/41/41 33/40/40 27/32/32
f 34/41/41 9/9/9 8/8/8 31/36/36
s 2
f 4/17/17 17/18/18 18/19/19 5/20/20
f 19/21/21 20/22/22 21/23/23 22/24/24
f 13/25/25 23/26/26 24/27/27 14/28/28
f 25/37/37 14/28/28 24/27/27 32/38/38
f 19/21/21 25/37/37 32/38/38 20/22/22
f 17/18/18 4/17/17 22/24/24 21/23/23
s 3
f 33/42/42 34/43/42 35/44/42 36/45/42
s 4
f 31/46/43 30/47/43 37/48/43 38/49/43
s 5
f 30/47/44 33/42/44 36/45/44 37/48/44
s 6
f 34/43/45 31/46/45 38/49/45 35/44/45
s 7
f 38/49/46 37/48/47 36/45/48 35/44/49

# 30 faces
